HIERARCHY
ROOT Hips
{
  OFFSET -254.933 87.2258 -211.5
  CHANNELS 6 Xposition Yposition Zposition Zrotation Xrotation Yrotation
  JOINT ToSpine
  {
    OFFSET -0.0105055 1.38907 -7.13956
    CHANNELS 3 Zrotation Xrotation Yrotation
    JOINT Spine
    {
      OFFSET 0.0105055 10 1
      CHANNELS 3 Zrotation Xrotation Yrotation
      JOINT Spine1
      {
        OFFSET 0 12 1.60637
        CHANNELS 3 Zrotation Xrotation Yrotation
        JOINT Neck
        {
          OFFSET 0 27 2.26658
          CHANNELS 3 Zrotation Xrotation Yrotation
          JOINT Head
          {
            OFFSET 0 9 2.12705
            CHANNELS 3 Zrotation Xrotation Yrotation
            End Site
            {
              OFFSET 0 11 2
            }
          }
        }
        JOINT LeftShoulder
        {
          OFFSET 8 19.6109 2.86452
          CHANNELS 3 Zrotation Xrotation Yrotation
          JOINT LeftArm
          {
            OFFSET 12 1 0.681055
            CHANNELS 3 Zrotation Xrotation Yrotation
            JOINT LeftForeArm
            {
              OFFSET 19 0 -1.52608
              CHANNELS 3 Zrotation Xrotation Yrotation
              JOINT LeftHand
              {
                OFFSET 23 0 0
                CHANNELS 3 Zrotation Xrotation Yrotation
                End Site
                {
                  OFFSET 10 0 0
                }
              }
            }
          }
        }
        JOINT RightShoulder
        {
          OFFSET -8 19.6109 2.86452
          CHANNELS 3 Zrotation Xrotation Yrotation
          JOINT RightArm
          {
            OFFSET -12 1 0.681055
            CHANNELS 3 Zrotation Xrotation Yrotation
            JOINT RightForeArm
            {
              OFFSET -19 0 -1.52608
              CHANNELS 3 Zrotation Xrotation Yrotation
              JOINT RightHand
              {
                OFFSET -23 0 0
                CHANNELS 3 Zrotation Xrotation Yrotation
                End Site
                {
                  OFFSET -10 0 0
                }
              }
            }
          }
        }
      }
    }
  }
  JOINT LeftUpLeg
  {
    OFFSET 9 -7.17245 0
    CHANNELS 3 Zrotation Xrotation Yrotation
    JOINT LeftLeg
    {
      OFFSET 0 -44.1113 0
      CHANNELS 3 Zrotation Xrotation Yrotation
      JOINT LeftFoot
      {
        OFFSET 0 -36.1829 0
        CHANNELS 3 Zrotation Xrotation Yrotation
        JOINT LeftToeBase
        {
          OFFSET 0 -4.84184 13
          CHANNELS 3 Zrotation Xrotation Yrotation
          End Site
          {
            OFFSET 0 1 6
          }
        }
      }
    }
  }
  JOINT RightUpLeg
  {
    OFFSET -9 -7.17245 0
    CHANNELS 3 Zrotation Xrotation Yrotation
    JOINT RightLeg
    {
      OFFSET 0 -44.0551 0
      CHANNELS 3 Zrotation Xrotation Yrotation
      JOINT RightFoot
      {
        OFFSET 0 -36.1469 0
        CHANNELS 3 Zrotation Xrotation Yrotation
        JOINT RightToeBase
        {
          OFFSET 0 -4.92256 13
          CHANNELS 3 Zrotation Xrotation Yrotation
          End Site
          {
            OFFSET 0 1 6
          }
        }
      }
    }
  }
}
MOTION
Frames:	12
Frame Time:	0.0333333
-254.933 87.2258 -211.5 1.53272 -4.43801 110.448 0 0 0 -44.5386 -4.06474 -17.6282 59.6593 33.6186 -44.3763 16.9009 -22.5665 -2.6752 -4.26634 -0.0392432 0.128749 -17.7371 3.33333 -10.1122 -28.3897 12.0548 -25.5827 -49.4054 -2.34452 -87.9923 -8.33809 -1.0554 14.403 23.7944 5.13495 13.4699 42.8301 -1.55696 -3.55377 31.974 4.39008 96.9909 -10.5383 0.532876 -5.77322 9.04167 -18.8693 -19.6694 3.54276e-006 58.1994 -45.9248 36.5839 -29.1449 9.82333 0.964811 -13.1347 -0.68469 27.5512 9.59828 -65.5824 -3.53551e-006 78.176 -14.0818 -35.2272 -15.38 -4.90936 4.56211 -16.9087 -0.417539 
-248.376 88.6396 -207.757 0.735085 -10.7684 103.785 0 0 0 -25.1351 -2.85582 -20.2514 46.9365 29.4375 -38.2262 14.457 -20.2972 0.0452714 -3.608 0.456912 2.57521 -18.1018 3.54007 -10.7532 -26.5996 13.8867 -26.244 -54.5916 -4.11057 -87.0829 -5.91527 -0.708214 13.6428 22.2749 4.40792 11.8183 44.4613 -1.08715 -2.41518 30.7808 4.42541 97.3809 -7.83996 0.422462 -6.1593 20.5401 -11.3692 -16.6972 2.15602e-008 50.3816 -39.6076 32.4372 -33.5442 10.0203 1.39499 -14.1556 -3.78591 15.478 0.0134051 -53.1492 180 89.2832 160.976 -43.0045 -26.8622 -10.7491 8.39351 -36.3648 -8.58461 
-243.055 91.1232 -204.287 -4.20334 -14.4195 88.6164 0 0 0 -2.21471 -2.28394 -18.9092 25.7728 22.7762 -26.8915 11.6552 -19.5228 3.29781 -3.16431 3.6709 5.31204 -17.756 3.32757 -10.0792 -26.5106 16.2399 -24.2943 -57.7923 -4.21647 -87.3482 -3.63377 -0.405011 12.7154 21.2108 4.40026 12.3401 44.9971 1.5129 -1.4135 29.6949 3.78671 96.6059 -5.96249 0.375177 -7.19447 26.8474 -2.26317 -5.56217 -4.34198e-007 41.1229 -33.1308 27.0623 -24.2023 5.9073 1.88493 -27.1736 -4.58053 6.03262 -19.1081 -37.4403 180 88.3176 155.044 -45.9455 -27.0497 -11.6443 6.81066 -29.7487 -9.50901 
-235.507 92.8394 -198.885 -7.84881 -11.3666 68.9833 0 0 0 10.3436 5.79336 -13.447 10.6046 10.2484 -15.6942 8.65046 -18.1566 6.60488 -3.33761 5.48833 8.19173 -18.1824 3.5269 -10.6584 -27.6525 17.3093 -21.6768 -58.9196 -6.77197 -85.9344 -2.87155 -0.29755 11.8293 20.5184 4.37395 12.6208 44.5471 4.03544 -1.30858 30.5637 2.05488 93.4746 -2.97189 0.126654 -4.87955 22.239 11.914 6.06151 9.12517e-009 29.4637 -26.7268 18.9087 -6.79102 1.13215 2.97007 -41.7208 -0.875749 5.06461 -36.2359 -17.3596 6.79188e-006 82.2073 -25.7407 -38.815 -24.1967 -8.63715 5.91135 -24.2126 -7.42211 
-225.248 94.1119 -191.205 -9.60101 -3.61412 53.902 0 0 0 9.20719 9.06879 -9.62161 5.42224 1.15538 -10.3689 5.04371 -16.9858 9.93242 -2.92048 7.85489 10.7646 -19.093 3.54694 -10.273 -28.1629 17.1632 -19.1672 -60.8625 -9.2169 -84.8977 -2.85869 -0.258842 10.3454 19.3809 4.5208 13.8282 42.7053 6.83436 0.326785 31.5967 -0.215463 89.6497 -0.81638 0.0213127 -2.99083 8.39088 20.7075 9.15337 1.25751 18.6283 -18.0752 13.1208 12.5426 -1.44816 1.91572 -28.203 -4.75351 7.82936 -46.4195 -0.771943 1.91202e-006 65.3228 -20.1177 -32.7463 -19.6517 -5.82605 4.59551 -17.7438 -5.76573 
-214.003 93.6553 -182.051 -11.8651 2.0261 45.8384 0 0 0 7.53641 3.86571 -8.20831 4.67642 -0.126674 -8.33983 2.9632 -16.9184 12.9112 -3.03296 9.33106 13.2596 -18.5996 3.32913 -9.66748 -30.2222 16.3318 -18.9644 -62.5671 -12.0598 -83.8103 -3.12003 -0.239596 8.78044 19.2054 4.58441 14.1784 38.6602 9.16905 4.13773 32.1063 -1.48876 87.6289 0.160702 -0.00425784 -3.03542 -0.421384 20.5833 7.05947 1.82029 22.7047 -13.0369 13.0364 9.25506 -1.05974 1.05037 -13.9225 -0.981167 12.3757 -50.4749 7.70029 2.51741e-007 45.1343 -7.43854 -30.3267 -13.5464 -3.68709 4.11774 -15.6951 -6.90188 
-204.16 92.826 -173.441 -10.8823 2.99524 42.9324 0 0 0 5.84141 2.64829 -8.42364 6.35628 1.02211 -8.53263 1.44521 -15.0256 14.1364 -2.77985 8.38241 14.1894 -21.6225 3.5393 -9.09153 -27.9309 15.2008 -19.1203 -65.1021 -13.1806 -83.9586 -2.94807 -0.235856 9.14628 20.999 4.96891 14.4863 33.6909 10.2887 8.22544 33.0133 -2.52239 86.125 0.468159 -0.0207588 -5.07778 -3.8017 22.4441 9.42456 -0.0161096 31.4372 -17.3108 14.1142 3.76469 -0.466221 1.26619 -18.0253 -0.527184 12.7328 -47.8764 5.68643 -7.51834e-009 30.9769 6.66442 -25.7104 -10.9698 -2.51068 4.02288 -15.1599 -5.34693 
-194.822 91.8504 -165.023 -7.617 2.42374 40.0194 0 0 0 4.5578 5.24877 -7.65505 5.79465 -0.237635 -7.64762 -0.488678 -8.99175 14.4221 -1.38057 5.81516 13.9625 -25.3564 3.78103 -8.44392 -24.0839 14.421 -19.2876 -66.2482 -14.4017 -83.754 -3.93762 -0.368998 10.7031 22.8368 5.72605 15.9715 30.5173 9.41759 10.1044 34.1975 -4.5135 83.3943 0.555674 -0.0223398 -4.60442 -6.6757 22.5258 15.6704 -6.13717e-007 46.0661 -16.2343 11.2036 4.821 -0.47313 1.68624 -23.1374 -2.55657 12.6139 -42.5913 2.43175 -4.16356e-008 28.1724 6.68543 -21.7571 -8.1242 -1.56384 4.49976 -17.3001 -5.64364 
-185.654 90.7542 -156.786 -5.80211 0.506324 37.1761 0 0 0 7.66477 8.28178 -5.6258 2.1212 -1.65279 -5.2521 -1.14212 -4.91978 13.5803 -0.851927 5.20625 12.9865 -27.6469 3.78645 -7.68207 -20.836 13.0774 -23.3501 -66.7307 -17.4342 -82.6583 -4.33412 -0.417192 10.9913 23.4868 6.18852 17.0876 28.5327 6.76198 12.1896 34.4977 -6.46489 80.6953 1.50221 -0.0598828 -4.56531 -5.75263 19.1527 21.3748 2.14374e-007 63.7006 -4.74538 17.749 0.52457 -0.0819067 1.64795 -23.7213 -0.284051 12.9991 -36.2439 1.65587 3.35178e-008 32.5321 3.65047 -14.5682 -8.48297 -1.08625 3.35585 -12.211 -5.07221 
-177.15 89.7512 -148.964 -6.09807 -0.638821 35.6218 0 0 0 12.6896 9.13626 -2.87783 -2.2379 -1.68891 -1.88804 -2.42978 -2.38598 11.2923 0.412987 4.6885 10.16 -29.8153 3.85281 -7.20799 -17.7212 10.6934 -30.0617 -61.2083 -20.3357 -79.1875 -4.22615 -0.35458 9.58765 22.4891 6.2384 17.9157 26.5774 3.48826 15.9181 34.4679 -8.62122 77.6817 3.57978 -0.14623 -4.67683 -0.92012 10.3669 23.431 -1.98322e-006 82.1103 10.9011 19.2205 -8.93855 1.51648 1.69681 -23.7606 -1.84853 13.2282 -34.5412 -3.47663 -4.02775e-007 44.2419 6.10086 -32.7689 -5.34 -1.57112 3.13962 -11.3248 -4.394 
-169.757 86.997 -141.59 -8.12378 -1.27129 35.0561 0 0 0 16.8508 9.9403 -0.0266673 -5.1036 -1.74392 1.69006 -5.48085 -5.01274 9.2377 1.79612 3.26031 7.08018 -32.1079 3.75318 -6.31323 -16.8159 7.19253 -37.4406 -58.3445 -20.6319 -77.7432 -4.95363 -0.446449 10.2935 19.5222 5.71813 18.2185 23.6776 0.783291 22.6811 37.8333 -12.9002 73.9616 2.95298 -0.105526 -4.09231 7.61308 -4.01174 22.443 -180 77.963 -165.278 25.1714 -17.6482 3.97008 1.71859 -23.904 -2.33286 15.7194 -32.6392 -1.16523 -1.66724e-008 56.0437 -1.38657 -40.5689 -17.2035 -6.4 4.66047 -18.4912 -8.14677 
-162.751 86.8757 -134.099 -8.78573 -0.77364 37.2563 0 0 0 17.3034 11.3666 2.09924 -6.31431 -0.723808 4.28232 -4.78834 -10.7539 6.31246 1.46344 6.13814 4.59936 -29.6682 3.75204 -6.97125 -21.0315 4.22796 -43.9945 -53.5917 -23.4095 -73.6692 -7.91504 -0.759019 10.9382 18.3161 5.64421 18.8849 20.6152 -2.97028 25.501 44.1235 -17.2747 72.9764 1.18377 -0.0337672 -3.26775 12.2657 -22.5482 16.0668 180 69.6341 -171.182 33.778 -22.1304 6.79591 1.35237 -20.2179 0.451733 13.6146 -25.7978 -4.75284 -6.24398e-008 56.8203 -4.00136 -42.29 -25.2713 -9.911 4.9496 -20.3826 -9.7263 
